<?xml version="1.0" encoding="utf-8"?>
<!-- Generator: Adobe Illustrator 16.0.0, SVG Export Plug-In . SVG Version: 6.00 Build 0)  -->
<!DOCTYPE svg PUBLIC "-//W3C//DTD SVG 1.1//EN" "http://www.w3.org/Graphics/SVG/1.1/DTD/svg11.dtd">
<svg version="1.1" id="Layer_1" xmlns="http://www.w3.org/2000/svg" xmlns:xlink="http://www.w3.org/1999/xlink" x="0px" y="0px"
	 width="11px" height="19px" viewBox="0 0 11 19" fill="white" enable-background="new 0 0 11 19" xml:space="preserve">
<g>
	<g>
		<path fill-rule="evenodd" clip-rule="evenodd" fill="none" d="M4.323,18.374c-2.531,0-5.063,0-7.594,0
			c0-5.838,0-11.676,0-17.514c2.816,0,5.633,0,8.449,0c-0.062,0.01-0.123,0.023-0.185,0.03c-0.605,0.064-1.187,0.218-1.73,0.494
			C1.909,2.072,1.011,3.155,0.469,4.566c-0.636,1.656-0.508,3.238,0.404,4.75c0.329,0.545,0.701,1.066,1.078,1.581
			c0.349,0.477,0.597,0.991,0.734,1.564c0.087,0.364,0.18,0.429,0.562,0.429c1.528,0,3.056,0,4.583,0
			c0.057,0,0.114,0.001,0.171-0.005c0.201-0.022,0.306-0.112,0.358-0.31c0.029-0.11,0.051-0.223,0.079-0.332
			c0.15-0.574,0.478-1.053,0.82-1.524c0.498-0.687,0.997-1.374,1.332-2.162c0.348-0.819,0.483-1.669,0.38-2.555
			c-0.092-0.785-0.348-1.522-0.717-2.213c-0.75-1.403-1.879-2.356-3.435-2.762C6.507,0.945,6.182,0.915,5.862,0.86
			c2.828,0,5.656,0,8.483,0c0,5.838,0,11.676,0,17.514c-2.531,0-5.063,0-7.594,0c0.164-0.131,0.242-0.304,0.257-0.511
			c0.023-0.325-0.148-0.581-0.405-0.583c-0.711-0.003-1.422,0-2.132-0.001c-0.155-0.001-0.255,0.073-0.324,0.207
			C3.991,17.794,4.055,18.123,4.323,18.374z M5.538,14.723c0.701,0,1.401,0.001,2.103,0c0.247,0,0.335-0.059,0.417-0.295
			c0.067-0.194,0.058-0.389-0.032-0.579c-0.068-0.145-0.175-0.22-0.334-0.22c-1.436,0-2.872,0-4.308-0.001
			c-0.137,0-0.244,0.057-0.311,0.176c-0.112,0.199-0.129,0.411-0.055,0.625c0.082,0.234,0.171,0.294,0.418,0.294
			C4.137,14.724,4.837,14.723,5.538,14.723z M5.537,15.458c-0.701,0-1.401-0.001-2.102,0c-0.246,0-0.337,0.061-0.417,0.295
			c-0.067,0.195-0.058,0.39,0.033,0.579c0.068,0.144,0.176,0.22,0.335,0.22c1.436,0,2.872,0,4.307,0
			c0.137,0,0.243-0.056,0.311-0.175c0.111-0.199,0.129-0.411,0.055-0.625c-0.082-0.235-0.171-0.294-0.418-0.294
			C6.938,15.457,6.238,15.458,5.537,15.458z"/>
		<path fill-rule="evenodd" clip-rule="evenodd" d="M5.862,0.86c0.319,0.054,0.645,0.085,0.957,0.167
			c1.556,0.406,2.685,1.359,3.435,2.762c0.369,0.691,0.625,1.428,0.717,2.213c0.104,0.885-0.032,1.735-0.38,2.555
			c-0.335,0.789-0.834,1.476-1.332,2.162c-0.343,0.472-0.67,0.95-0.82,1.524c-0.028,0.109-0.05,0.222-0.079,0.332
			c-0.053,0.197-0.157,0.287-0.358,0.31C7.944,12.891,7.887,12.89,7.83,12.89c-1.527,0-3.055,0-4.583,0
			c-0.382,0-0.475-0.064-0.562-0.429c-0.138-0.573-0.386-1.088-0.734-1.564c-0.376-0.515-0.749-1.035-1.078-1.581
			c-0.912-1.512-1.04-3.094-0.404-4.75c0.542-1.411,1.44-2.494,2.794-3.182c0.543-0.276,1.125-0.43,1.73-0.494
			c0.062-0.007,0.123-0.02,0.185-0.03C5.407,0.86,5.635,0.86,5.862,0.86z"/>
		<path fill-rule="evenodd" clip-rule="evenodd" d="M4.323,18.374c-0.268-0.251-0.332-0.58-0.176-0.888
			c0.068-0.134,0.169-0.208,0.324-0.207c0.71,0.001,1.421-0.002,2.132,0.001c0.257,0.002,0.429,0.258,0.405,0.583
			c-0.015,0.207-0.093,0.38-0.257,0.511C5.942,18.374,5.133,18.374,4.323,18.374z"/>
		<path fill-rule="evenodd" clip-rule="evenodd" d="M5.538,14.723c-0.701,0-1.401,0.001-2.102,0c-0.247,0-0.336-0.06-0.418-0.294
			c-0.074-0.214-0.057-0.426,0.055-0.625c0.067-0.119,0.174-0.176,0.311-0.176c1.436,0.001,2.872,0.001,4.308,0.001
			c0.159,0,0.266,0.075,0.334,0.22c0.09,0.19,0.1,0.385,0.032,0.579c-0.082,0.236-0.17,0.295-0.417,0.295
			C6.939,14.724,6.239,14.723,5.538,14.723z"/>
		<path fill-rule="evenodd" clip-rule="evenodd" d="M5.537,15.458c0.701,0,1.401-0.001,2.103,0c0.247,0,0.336,0.059,0.418,0.294
			c0.074,0.214,0.057,0.426-0.055,0.625c-0.067,0.119-0.174,0.175-0.311,0.175c-1.436,0-2.872,0-4.307,0
			c-0.159,0-0.267-0.076-0.335-0.22c-0.09-0.189-0.1-0.384-0.033-0.579c0.081-0.234,0.172-0.295,0.417-0.295
			C4.136,15.457,4.836,15.458,5.537,15.458z"/>
	</g>
</g>
</svg>
