<svg version="1.1" id="Layer_1" xmlns="http://www.w3.org/2000/svg" xmlns:xlink="http://www.w3.org/1999/xlink" x="0px" y="0px"
	 width="612px" height="792px" viewBox="0 0 612 792" enable-background="new 0 0 612 792" xml:space="preserve">
<g>
	<g>
		<path fill-rule="evenodd" clip-rule="evenodd" fill="none" d="M51,372c0-76.917,0-153.834,0-231c77,0,154,0,231,0
			c0.076,1.16,0.219,2.319,0.219,3.479c0.011,74.283,0.011,148.567,0,222.851c0,1.454-0.145,2.908-0.25,4.899
			c-2.074,0-3.856,0-5.639,0c-73.451,0-146.902,0.002-220.353-0.01C54.319,372.22,52.66,372.076,51,372z"/>
		<path fill-rule="evenodd" clip-rule="evenodd" fill="none" d="M332,141c77,0,154,0,231,0c0,77,0,154,0,231
			c-1.16,0.076-2.319,0.219-3.479,0.219c-74.283,0.011-148.567,0.012-222.851,0.001c-1.454,0-2.908-0.145-4.899-0.25
			c0-2.073,0-3.856,0-5.639c0-73.451-0.001-146.901,0.009-220.353C331.78,144.319,331.924,142.659,332,141z"/>
		<path fill-rule="evenodd" clip-rule="evenodd" fill="none" d="M282,653c-77,0-154,0-231,0c0-77,0-154,0-231
			c1.16-0.076,2.32-0.219,3.479-0.219c74.284-0.011,148.567-0.012,222.851-0.001c1.454,0,2.908,0.145,4.899,0.25
			c0,2.073,0,3.856,0,5.639c0,73.451,0.001,146.901-0.009,220.353C282.22,649.681,282.077,651.341,282,653z"/>
		<path fill-rule="evenodd" clip-rule="evenodd" fill="none" d="M563,422c0,77,0,154,0,231c-77,0-154,0-231,0
			c-0.076-1.16-0.219-2.319-0.219-3.479c-0.012-74.283-0.012-148.567-0.001-222.851c0.001-1.454,0.144-2.908,0.249-4.899
			c2.074,0,3.857,0,5.64,0c73.451,0,146.901-0.002,220.353,0.01C559.681,421.78,561.341,421.924,563,422z"/>
		<path fill-rule="evenodd" clip-rule="evenodd" fill="#4B4F56" d="M563,422c-1.659-0.076-3.319-0.22-4.979-0.22
			c-73.451-0.012-146.901-0.01-220.353-0.01c-1.782,0-3.565,0-5.64,0c-0.105,1.991-0.248,3.445-0.249,4.899
			c-0.011,74.283-0.011,148.567,0.001,222.851c0,1.16,0.143,2.319,0.219,3.479c-16.666,0-33.333,0-50,0
			c0.077-1.659,0.22-3.319,0.22-4.979c0.011-73.451,0.009-146.901,0.009-220.353c0-1.782,0-3.565,0-5.639
			c-1.991-0.105-3.445-0.25-4.899-0.25c-74.283-0.011-148.567-0.01-222.851,0.001c-1.16,0-2.32,0.143-3.479,0.219
			c0-16.667,0-33.333,0-50c1.66,0.076,3.319,0.22,4.979,0.22c73.451,0.012,146.901,0.01,220.353,0.01c1.783,0,3.565,0,5.639,0
			c0.105-1.991,0.249-3.445,0.25-4.899c0.011-74.283,0.01-148.567,0-222.851c0-1.16-0.143-2.319-0.219-3.479c16.667,0,33.334,0,50,0
			c-0.076,1.659-0.22,3.319-0.221,4.979c-0.01,73.451-0.009,146.901-0.009,220.353c0,1.782,0,3.565,0,5.639
			c1.991,0.105,3.445,0.25,4.899,0.25c74.283,0.011,148.567,0.01,222.851-0.001c1.16,0,2.319-0.143,3.479-0.219
			C563,388.667,563,405.333,563,422z"/>
	</g>
</g>
</svg>
